<?xml version="1.0" standalone="no"?>
<!DOCTYPE svg PUBLIC "-//W3C//DTD SVG 20010904//EN"
 "http://www.w3.org/TR/2001/REC-SVG-20010904/DTD/svg10.dtd">
<svg version="1.0" xmlns="http://www.w3.org/2000/svg"
 width="500.000000pt" height="500.000000pt" viewBox="0 0 500.000000 500.000000"
 preserveAspectRatio="xMidYMid meet">

<g transform="translate(0.000000,500.000000) scale(0.100000,-0.100000)"
fill="#000000" stroke="none">
<path d="M0 2500 l0 -2500 2500 0 2500 0 0 2500 0 2500 -2500 0 -2500 0 0
-2500z m2568 1452 c3 -121 2 -122 -20 -122 -17 1 -36 21 -77 81 -30 44 -59 83
-63 85 -5 3 -5 -33 -2 -80 6 -75 5 -86 -10 -92 -9 -4 -19 -4 -22 -1 -3 2 -8
59 -11 126 l-6 121 24 0 c19 0 36 -17 79 -81 30 -44 58 -83 63 -86 5 -3 8 32
7 78 -2 105 -3 101 18 97 15 -3 17 -18 20 -126z m-353 45 c19 -19 37 -46 41
-60 18 -74 -32 -146 -109 -154 -82 -10 -137 42 -137 127 0 73 49 119 129 120
36 0 49 -6 76 -33z m815 -12 c33 -17 60 -52 60 -77 0 -27 -16 -22 -51 17 -26
28 -40 35 -69 35 -41 0 -64 -19 -80 -66 -23 -66 41 -127 109 -103 19 7 36 7
47 1 15 -8 14 -11 -10 -27 -43 -28 -122 -16 -158 24 -37 41 -44 76 -27 125 25
73 110 107 179 71z m-1113 -169 c41 -81 44 -91 29 -102 -14 -10 -32 -4 -104
37 -48 27 -91 49 -95 49 -5 0 10 -34 33 -77 31 -58 38 -78 28 -84 -7 -5 -16
-9 -20 -9 -4 0 -33 49 -63 110 -50 99 -53 110 -37 119 13 7 38 -2 106 -41 48
-27 90 -47 93 -45 2 3 -13 37 -34 76 -32 61 -36 73 -23 81 19 12 29 -1 87
-114z m1349 59 c3 -8 -17 -54 -44 -102 l-50 -88 34 -19 c32 -19 46 -46 24 -46
-6 0 -33 13 -60 28 l-49 28 60 107 c59 105 74 122 85 92z m-1641 -207 c67 -80
74 -93 62 -106 -13 -13 -28 -11 -116 16 -56 16 -101 28 -101 25 0 -2 25 -34
56 -70 42 -50 52 -68 42 -74 -7 -5 -16 -9 -19 -9 -4 0 -41 41 -84 91 -68 79
-76 92 -63 105 12 12 27 10 113 -16 55 -16 101 -27 103 -25 3 2 -19 31 -48 65
-48 55 -60 90 -31 90 5 0 44 -41 86 -92z m1932 8 c74 -81 20 -205 -90 -206
-77 0 -127 50 -127 129 0 28 8 48 27 71 34 41 58 51 113 46 35 -3 51 -11 77
-40z m187 -192 c7 -17 6 -18 -81 -81 -29 -21 -55 -46 -58 -55 -8 -22 9 -54 35
-68 24 -13 42 -5 124 58 46 35 60 42 67 31 14 -22 7 -30 -76 -87 -63 -43 -83
-52 -104 -47 -35 9 -61 33 -78 73 -11 27 -11 38 -1 60 12 24 140 132 158 132
4 0 11 -7 14 -16z m-994 -32 c93 -26 199 -69 267 -110 29 -17 55 -27 58 -22 3
5 22 14 41 20 98 33 185 -61 143 -154 -11 -23 -7 -30 37 -80 105 -118 195
-302 229 -475 27 -129 17 -375 -19 -495 -117 -391 -432 -676 -829 -751 -102
-19 -282 -19 -384 0 -228 43 -419 149 -581 320 -140 149 -229 320 -268 517
-16 82 -18 85 -50 97 -48 17 -74 55 -74 107 0 51 35 99 80 109 20 4 30 13 30
25 0 36 49 209 81 285 113 273 378 509 666 594 118 35 164 40 333 37 129 -3
181 -8 240 -24z m-1271 -84 c-8 -14 -14 -16 -36 -7 -14 5 -28 8 -30 6 -2 -3
-17 -22 -32 -43 -27 -36 -28 -39 -13 -62 13 -21 13 -25 0 -38 -13 -13 -23 -2
-85 95 -65 100 -70 111 -57 129 14 20 16 20 138 -21 110 -36 123 -43 115 -59z
m-329 -157 c0 -21 -13 -41 -26 -41 -27 0 -54 -39 -54 -78 0 -53 36 -87 92 -87
55 0 82 33 75 91 -2 23 0 49 5 58 9 16 11 16 24 -1 20 -27 17 -93 -6 -131 -44
-71 -134 -80 -197 -17 -27 27 -33 41 -33 77 0 54 30 104 73 123 38 17 47 18
47 6z m2797 -47 c33 -73 28 -127 -16 -166 -72 -64 -155 -43 -203 52 -15 30
-26 59 -25 64 2 6 194 100 215 105 2 1 15 -24 29 -55z m-2878 -947 c18 -15 38
-27 44 -27 7 0 -2 -9 -19 -19 -33 -20 -74 -71 -74 -92 0 -7 -13 7 -28 32 -16
24 -40 50 -55 58 l-26 14 38 27 c21 15 44 42 51 60 l13 32 12 -29 c7 -16 27
-41 44 -56z m2985 -9 l34 -22 -34 -24 c-19 -12 -43 -39 -53 -60 -11 -20 -20
-30 -21 -22 0 22 -56 88 -81 95 -18 6 -16 10 19 35 22 16 46 42 53 59 l14 31
18 -35 c10 -19 33 -45 51 -57z m-250 -341 c-3 -8 14 -22 42 -35 56 -28 51 -41
-7 -18 -31 13 -44 14 -55 5 -18 -14 -18 0 -2 36 11 25 32 36 22 12z m-2570
-25 c3 -5 -16 -29 -41 -53 -25 -24 -43 -36 -39 -26 8 23 -10 57 -29 57 -32 0
-13 19 23 23 70 7 81 7 86 -1z m2526 -88 c0 -4 -8 -13 -17 -20 -13 -9 -15 -16
-7 -24 8 -8 18 -5 36 9 22 18 28 18 44 7 16 -12 16 -18 6 -40 -11 -25 -42 -37
-42 -16 0 6 7 10 15 10 8 0 15 6 15 13 0 24 -12 27 -37 7 -43 -34 -85 6 -47
44 16 16 34 21 34 10z m-2491 -60 l-19 -46 35 20 c54 33 50 8 -5 -26 -27 -17
-52 -27 -55 -22 -3 5 3 27 15 49 26 53 25 56 -9 32 -32 -23 -41 -26 -41 -12 0
13 81 61 91 55 5 -2 -1 -25 -12 -50z m2401 -59 c-17 -21 3 -46 22 -27 18 18
33 15 18 -3 -22 -26 4 -43 30 -20 24 22 26 13 4 -20 l-16 -25 -36 27 c-21 15
-41 30 -46 34 -5 5 -1 19 8 34 10 15 20 24 23 21 3 -3 0 -13 -7 -21z m-2281
-125 c-27 -23 -48 -35 -53 -29 -5 5 -8 10 -5 12 2 1 21 17 42 35 21 18 43 30
49 26 6 -4 -8 -23 -33 -44z m2249 21 c33 -31 40 -59 20 -79 -20 -20 -48 -14
-83 17 -43 37 -33 48 11 14 58 -44 90 -7 34 40 -16 14 -30 28 -30 31 0 13 17
4 48 -23z m-2164 -89 l-7 -47 27 24 c14 14 29 21 33 18 9 -10 -68 -88 -79 -81
-5 3 -6 27 -2 52 l7 47 -27 -24 c-14 -14 -29 -21 -33 -18 -9 10 68 88 79 81 5
-3 6 -27 2 -52z m2068 -19 c10 -9 18 -24 18 -34 0 -10 9 -19 23 -22 21 -3 21
-4 2 -11 -11 -4 -34 -15 -52 -24 -29 -14 -33 -14 -57 1 -30 20 -35 61 -9 89
20 22 51 23 75 1z m-1935 -55 c25 -23 32 -48 9 -29 -12 10 -20 5 -43 -23 -15
-20 -31 -36 -35 -36 -15 0 -8 23 17 52 20 24 23 33 14 44 -19 23 11 17 38 -8z
m1812 -64 c18 -25 31 -48 28 -51 -3 -3 -26 2 -51 10 -26 9 -46 13 -46 10 0 -2
9 -16 20 -30 11 -15 18 -29 14 -32 -6 -6 -46 39 -66 73 -9 17 -8 18 18 13 16
-4 40 -10 53 -13 l25 -7 -22 30 c-12 17 -19 33 -15 37 9 8 6 11 42 -40z
m-1714 -10 c14 -9 22 -20 19 -26 -3 -5 -11 -4 -19 2 -24 20 -39 1 -18 -22 18
-21 18 -21 -9 -14 -31 7 -44 -6 -23 -24 21 -17 19 -33 -2 -21 -46 26 -46 26
-12 75 18 25 34 46 36 46 2 0 15 -7 28 -16z m1588 -76 l21 -28 -21 -27 c-11
-16 -30 -29 -42 -31 -54 -8 -83 71 -38 103 30 21 56 16 80 -17z m-1472 1 c24
-24 21 -40 -10 -54 -16 -7 -21 -16 -18 -33 3 -14 0 -21 -7 -19 -6 2 -14 17
-17 33 -5 24 -7 26 -13 12 -5 -10 -14 -18 -22 -18 -11 0 -8 12 11 50 28 55 44
61 76 29z m147 -77 c6 -9 12 -19 12 -24 0 -14 -19 -9 -28 8 -5 9 -18 14 -33
12 -19 -2 -24 -9 -24 -33 0 -23 5 -31 23 -33 26 -4 28 6 5 25 -16 13 -15 14
12 8 38 -8 42 -12 29 -33 -16 -25 -59 -27 -83 -3 -28 28 -26 47 4 77 27 27 59
26 83 -4z m1162 18 c0 -5 -13 -10 -29 -10 -18 0 -31 -6 -35 -16 -18 -48 35
-83 66 -44 10 13 21 20 25 16 3 -3 -2 -15 -12 -26 -27 -29 -75 -23 -94 11 -13
24 -13 29 2 53 12 18 26 26 47 26 17 0 30 -4 30 -10z m-1030 -117 c0 -68 -1
-68 -19 -44 -15 20 -23 22 -52 16 l-33 -8 29 39 c15 22 33 45 38 52 5 6 16 12
23 12 11 0 14 -17 14 -67z m800 32 c-3 -5 -15 -9 -26 -7 -27 3 -47 -21 -39
-48 7 -22 44 -27 63 -8 17 17 28 2 12 -17 -15 -18 -71 -20 -88 -3 -17 17 -15
64 4 83 18 17 83 17 74 0z m-694 -12 c-17 -61 -17 -83 -2 -83 9 0 16 -4 16
-10 0 -11 -20 -13 -42 -5 -20 8 -1 115 19 115 9 0 12 -7 9 -17z m549 -60 c5
-36 3 -53 -4 -53 -6 0 -11 3 -11 8 -1 4 -5 27 -10 52 -4 25 -6 49 -3 53 10 16
21 -8 28 -60z m-406 38 c17 -31 25 -101 12 -101 -6 0 -11 5 -11 10 0 13 -47
13 -55 0 -4 -6 -10 -8 -15 -5 -10 6 39 115 52 115 4 0 12 -8 17 -19z m182 -17
c10 -13 6 -14 -28 -8 -36 5 -42 4 -48 -15 -11 -34 12 -54 54 -46 31 6 33 5 22
-9 -29 -35 -101 -7 -101 39 0 55 67 80 101 39z m129 16 c-10 -6 -13 -23 -11
-54 3 -60 -16 -60 -25 -1 -4 28 -11 45 -20 45 -8 0 -14 5 -14 10 0 6 19 10 43
10 29 0 38 -3 27 -10z"/>
<path d="M2072 3967 c-28 -30 -29 -85 -1 -121 38 -48 129 -29 143 30 9 34 -10
91 -34 104 -34 18 -85 12 -108 -13z"/>
<path d="M3406 3649 c-33 -39 -35 -88 -3 -116 31 -28 52 -34 86 -22 92 32 74
169 -23 169 -26 0 -40 -7 -60 -31z"/>
<path d="M2360 3464 c-143 -22 -231 -49 -345 -106 -300 -150 -512 -438 -564
-766 -7 -47 -7 -47 29 -65 88 -42 84 -161 -7 -207 l-30 -16 19 -94 c38 -185
125 -352 260 -495 221 -233 519 -352 831 -331 309 22 592 177 778 427 66 89
143 254 171 364 32 129 32 370 0 499 -39 157 -134 338 -232 444 -29 32 -31 32
-60 17 -37 -19 -73 -19 -110 0 -51 26 -69 85 -49 154 5 18 -131 92 -233 127
-133 44 -338 66 -458 48z m342 -365 c234 -78 408 -263 469 -498 26 -97 27
-241 4 -336 -50 -205 -196 -387 -380 -475 -58 -28 -63 -33 -69 -69 -8 -54 -53
-91 -110 -91 -48 0 -80 19 -101 61 -14 27 -20 29 -69 29 -29 0 -88 9 -132 20
-504 128 -702 721 -379 1132 80 102 221 196 349 233 126 37 299 34 418 -6z"/>
<path d="M2345 3106 c-347 -80 -574 -376 -552 -721 22 -349 281 -614 638 -650
l66 -7 7 34 c11 59 77 103 136 92 31 -7 74 -40 82 -64 11 -34 166 57 261 154
201 204 253 522 127 781 -87 179 -227 301 -415 361 -99 32 -259 41 -350 20z
m298 -361 c68 -34 140 -107 170 -173 32 -70 32 -227 -2 -294 -37 -75 -95 -134
-169 -170 -60 -30 -75 -33 -157 -33 -77 0 -98 4 -147 27 -75 35 -138 95 -174
165 -26 53 -29 67 -29 158 0 89 3 106 28 157 35 71 119 149 190 177 80 32 213
26 290 -14z"/>
<path d="M2574 1830 c-55 -22 -72 -108 -31 -155 14 -17 36 -28 63 -32 36 -4
45 -1 72 23 41 38 48 79 22 122 -28 46 -77 62 -126 42z"/>
<path d="M3085 3304 c-55 -59 -15 -164 63 -164 73 0 119 57 100 125 -11 44
-43 65 -95 65 -35 0 -49 -6 -68 -26z"/>
<path d="M1403 2523 c-35 -7 -73 -59 -73 -100 0 -77 100 -122 163 -73 80 63
12 192 -90 173z"/>
<path d="M1300 3365 l33 -48 24 29 23 29 -29 12 c-15 7 -41 15 -56 19 l-28 7
33 -48z"/>
<path d="M3828 3132 c-89 -40 -96 -55 -49 -103 35 -34 64 -37 109 -9 41 25 55
59 40 102 -6 18 -13 36 -17 39 -3 4 -41 -9 -83 -29z"/>
<path d="M1160 1823 c0 -5 4 -14 8 -21 7 -9 13 -8 27 8 18 20 18 20 -8 20 -15
0 -27 -3 -27 -7z"/>
<path d="M3471 1402 c-13 -24 12 -62 39 -62 27 0 44 34 30 60 -14 25 -56 26
-69 2z"/>
<path d="M3223 1223 c-16 -6 -17 -45 -1 -61 32 -32 79 2 60 43 -11 24 -31 30
-59 18z"/>
<path d="M1781 1206 c-12 -14 -5 -26 16 -26 15 0 18 26 4 34 -5 3 -14 0 -20
-8z"/>
<path d="M2061 1056 c-9 -10 -8 -15 4 -20 10 -4 15 1 15 14 0 24 -4 25 -19 6z"/>
<path d="M2320 1000 c-9 -16 -8 -20 5 -20 8 0 15 9 15 20 0 11 -2 20 -5 20 -2
0 -9 -9 -15 -20z"/>
</g>
</svg>
