<?xml version="1.0" standalone="no"?>
<!DOCTYPE svg PUBLIC "-//W3C//DTD SVG 20010904//EN"
 "http://www.w3.org/TR/2001/REC-SVG-20010904/DTD/svg10.dtd">
<svg version="1.0" xmlns="http://www.w3.org/2000/svg"
 width="300.000000pt" height="300.000000pt" viewBox="0 0 300.000000 300.000000"
 preserveAspectRatio="xMidYMid meet">
<metadata>
Created by potrace 1.10, written by Peter Selinger 2001-2011
</metadata>
<g transform="translate(0.000000,300.000000) scale(0.100000,-0.100000)"
fill="#000000" stroke="none">
<path d="M1407 2452 c-10 -10 -17 -28 -17 -40 0 -28 -12 -28 -36 -1 -28 31
-57 39 -101 28 -45 -13 -72 -43 -73 -81 0 -36 -11 -35 -38 2 -28 37 -47 38
-70 3 -12 -20 -25 -28 -46 -28 -46 0 -55 -26 -28 -81 13 -25 21 -48 19 -50 -2
-2 -21 14 -42 36 -22 22 -43 40 -49 40 -17 0 -45 -32 -39 -46 4 -10 -3 -14
-20 -14 -14 0 -33 -7 -42 -16 -23 -23 -10 -55 48 -116 9 -10 17 -20 17 -22 0
-6 -43 5 -55 14 -5 4 -29 11 -53 15 -52 8 -87 -14 -76 -49 8 -25 71 -117 92
-133 21 -17 52 10 52 44 0 16 8 27 25 33 14 5 30 20 36 33 6 12 20 27 32 32
14 6 22 19 21 33 0 17 5 22 24 22 37 0 64 27 51 51 -7 15 -6 17 6 13 8 -4 15
-10 15 -15 0 -17 20 -9 42 16 12 14 30 25 40 25 39 0 59 19 54 50 l-4 29 35
-23 c20 -14 43 -22 52 -19 55 17 74 29 88 56 l15 31 15 -27 c16 -31 38 -34 65
-10 17 15 20 15 42 -6 l24 -22 21 22 c17 18 21 36 21 87 0 95 -26 126 -72 85
-17 -15 -19 -15 -36 0 -24 22 -35 21 -55 -1z m68 -57 c21 -30 40 -55 43 -55 3
0 2 25 -2 55 -5 45 -3 55 9 55 12 0 15 -15 15 -80 0 -46 -4 -80 -10 -80 -5 0
-26 25 -46 55 -20 30 -39 55 -42 55 -2 0 -2 -25 0 -55 3 -40 1 -55 -8 -55 -9
0 -13 23 -16 76 -4 106 2 109 57 29z m-154 12 c63 -48 36 -137 -42 -137 -70 0
-103 77 -54 125 26 27 70 32 96 12z m-176 -106 c22 -44 31 -72 24 -76 -5 -4
-37 9 -69 29 -33 19 -60 34 -60 32 0 -2 11 -24 25 -47 28 -50 30 -59 12 -59
-16 0 -80 127 -67 135 5 3 33 -7 62 -22 29 -15 56 -29 60 -31 4 -2 -4 17 -18
42 -22 39 -25 66 -9 66 3 0 20 -31 40 -69z m39 3 c3 -8 2 -12 -4 -9 -6 3 -10
10 -10 16 0 14 7 11 14 -7z m-164 -157 c1 -17 -28 -17 -83 1 -31 11 -57 16
-57 13 0 -4 16 -22 35 -41 23 -23 32 -37 25 -44 -14 -14 -111 95 -98 111 7 9
23 7 65 -8 78 -27 82 -24 39 20 -22 23 -35 44 -31 51 5 7 24 -7 56 -42 26 -29
48 -57 49 -61z m-187 -94 c33 -10 57 -22 57 -30 0 -9 -8 -12 -22 -8 -29 6 -66
-38 -49 -58 5 -7 6 -18 2 -25 -5 -8 -22 11 -50 54 -42 67 -47 102 -13 89 9 -3
43 -13 75 -22z"/>
<path d="M1252 2384 c-37 -26 -20 -94 24 -94 53 0 75 64 32 94 -12 9 -25 16
-28 16 -3 0 -16 -7 -28 -16z m48 -45 c0 -25 -33 -22 -38 4 -2 12 3 17 17 17
15 0 21 -6 21 -21z"/>
<path d="M778 2020 c20 -35 23 -36 39 -11 11 17 8 21 -19 30 -17 6 -32 11 -34
11 -2 0 5 -13 14 -30z"/>
<path d="M1732 2410 c-39 -24 -56 -62 -47 -107 11 -58 86 -96 142 -70 50 22
31 69 -29 71 -22 1 -34 6 -36 17 -5 27 26 30 56 4 48 -41 83 3 46 60 -28 42
-85 54 -132 25z m103 -35 c25 -24 32 -45 17 -45 -5 0 -18 11 -30 25 -27 31
-56 32 -76 3 -36 -51 -6 -93 58 -82 37 6 39 5 27 -10 -14 -16 -56 -21 -86 -10
-28 11 -46 59 -35 91 22 58 83 71 125 28z"/>
<path d="M1914 2328 c-31 -38 -67 -116 -60 -134 5 -12 61 -44 79 -44 6 0 19 7
29 17 17 15 18 14 18 -15 0 -48 44 -92 97 -96 35 -3 46 1 68 24 16 17 29 44
32 67 4 34 1 45 -25 74 -47 54 -108 50 -160 -9 -22 -26 -23 -26 -37 -8 -13 17
-11 24 10 61 29 49 30 58 9 79 -22 22 -29 20 -60 -16z m44 -21 c-6 -12 -22
-39 -35 -59 l-23 -37 26 -14 c16 -8 22 -17 16 -21 -5 -3 -24 2 -40 11 l-30 17
36 67 c22 40 42 65 49 62 10 -4 10 -10 1 -26z m169 -92 c29 -20 37 -59 19 -94
-25 -48 -82 -56 -121 -16 -30 30 -32 64 -4 99 24 30 71 35 106 11z"/>
<path d="M2047 2192 c-21 -23 -22 -56 -1 -76 19 -20 34 -20 62 0 26 18 29 56
6 78 -21 21 -47 20 -67 -2z m53 -33 c0 -9 -9 -19 -20 -22 -14 -4 -20 0 -20 12
0 22 6 28 25 28 8 0 15 -8 15 -18z"/>
<path d="M2200 2112 c0 -4 -13 -15 -29 -25 -16 -9 -36 -33 -45 -52 -16 -33
-16 -37 0 -70 9 -20 26 -37 38 -40 47 -10 64 -9 79 4 10 7 17 11 17 7 0 -3 16
10 35 30 39 40 40 43 22 69 -17 22 -57 15 -87 -17 -11 -12 -22 -19 -26 -16 -3
3 11 18 30 33 37 28 45 52 24 73 -13 13 -58 17 -58 4z m50 -25 c0 -7 -12 -20
-28 -29 -40 -24 -63 -53 -56 -71 11 -29 33 -26 80 9 35 27 49 33 58 24 8 -8 7
-13 -4 -20 -8 -5 -30 -20 -49 -34 -42 -31 -64 -33 -91 -6 -34 34 -26 65 26
105 50 38 64 42 64 22z"/>
<path d="M1350 2100 c-14 -4 -45 -13 -70 -20 -40 -12 -164 -77 -198 -104 -110
-90 -194 -219 -230 -353 -15 -55 -27 -78 -51 -98 -26 -22 -31 -34 -31 -68 1
-40 26 -87 48 -87 5 0 15 -19 22 -42 26 -86 63 -174 95 -226 30 -48 129 -162
141 -162 3 0 13 -8 24 -17 26 -25 113 -68 190 -95 54 -18 87 -22 200 -22 117
-1 144 2 204 23 71 24 175 79 202 105 8 9 23 21 32 28 21 16 122 133 122 142
0 4 11 23 24 44 42 64 72 185 75 297 2 83 -2 115 -24 190 -25 85 -72 178 -122
238 -15 19 -23 41 -23 68 0 30 -7 47 -26 66 -23 23 -31 25 -77 20 -40 -5 -57
-2 -83 14 -34 20 -57 29 -152 55 -57 15 -249 18 -292 4z m305 -30 c42 -11 102
-33 133 -50 38 -20 59 -27 66 -20 15 15 59 12 85 -6 19 -14 22 -23 19 -58 -4
-36 0 -46 32 -83 114 -131 165 -352 124 -536 -28 -123 -77 -211 -174 -308 -95
-97 -180 -145 -305 -175 -96 -22 -256 -15 -345 15 -206 71 -382 266 -423 470
-10 47 -19 66 -33 71 -54 21 -59 92 -8 125 25 16 32 30 42 80 40 212 231 412
454 476 88 25 233 25 333 -1z"/>
<path d="M1380 2070 c-25 -5 -71 -18 -103 -29 -184 -65 -342 -237 -391 -428
-21 -79 -20 -90 4 -96 48 -12 50 -101 2 -122 -27 -12 -27 -22 -3 -107 32 -110
77 -185 166 -273 129 -128 255 -180 440 -179 93 1 123 5 192 29 183 62 322
196 393 381 32 81 40 270 16 364 -32 124 -134 290 -167 269 -45 -28 -113 17
-107 73 3 28 -2 35 -36 54 -101 57 -289 87 -406 64z m274 -36 c28 -9 72 -25
97 -37 42 -19 47 -25 52 -60 3 -21 16 -50 29 -64 19 -21 30 -24 68 -21 38 3
48 0 67 -22 12 -14 23 -31 23 -37 0 -7 4 -13 8 -13 10 0 44 -74 72 -160 31
-92 31 -230 0 -333 -13 -45 -27 -74 -33 -70 -6 3 -7 1 -3 -5 14 -24 -48 -116
-132 -196 -51 -48 -178 -126 -208 -126 -11 0 -24 -4 -30 -10 -34 -34 -329 -33
-350 1 -3 5 -14 9 -25 9 -20 0 -132 58 -137 72 -2 4 -8 8 -13 8 -9 0 -23 12
-94 80 -59 57 -144 224 -145 283 0 16 11 43 25 61 35 46 34 94 -4 130 l-28 27
17 62 c24 87 35 110 79 175 94 139 234 230 401 262 61 12 200 3 264 -16z"/>
<path d="M1409 1900 c-25 -4 -54 -13 -65 -18 -10 -6 -41 -21 -69 -34 -150 -70
-259 -287 -228 -455 26 -136 86 -233 188 -306 55 -38 160 -77 210 -77 18 0 38
-7 46 -16 21 -25 69 -46 93 -40 35 9 76 45 76 67 0 12 10 23 26 29 40 15 189
140 167 140 -3 0 1 8 10 18 65 72 97 257 62 363 -22 66 -51 122 -89 172 -32
42 -139 115 -204 141 -52 20 -160 28 -223 16z m264 -58 c76 -38 163 -120 196
-186 68 -137 66 -267 -4 -406 -31 -60 -117 -145 -176 -172 -31 -15 -48 -29
-49 -41 0 -25 -45 -67 -70 -67 -12 0 -34 13 -50 29 -22 22 -41 29 -85 34 -176
18 -336 175 -367 359 -33 199 94 405 289 469 45 15 79 18 155 16 85 -3 106 -8
161 -35z"/>
<path d="M1403 1860 c-116 -23 -234 -117 -287 -229 -29 -62 -31 -74 -31 -176
0 -98 3 -116 27 -168 55 -118 176 -213 303 -236 78 -15 85 -14 85 7 0 51 88
74 121 33 l19 -23 47 24 c145 72 240 262 212 426 -41 238 -259 388 -496 342z
m252 -49 c33 -15 75 -41 93 -57 73 -63 139 -198 129 -262 -3 -16 -1 -35 3 -42
11 -17 -15 -121 -45 -180 -29 -58 -101 -131 -151 -155 -32 -15 -37 -15 -52 -2
-9 9 -28 17 -42 18 -57 5 -76 -1 -93 -31 -15 -25 -24 -30 -57 -30 -110 0 -241
95 -303 219 -30 61 -32 73 -32 166 0 93 2 105 33 167 36 74 103 146 166 179
103 56 246 60 351 10z"/>
<path d="M1388 1672 c-53 -26 -109 -89 -127 -141 -55 -164 90 -337 264 -316
30 4 60 13 66 21 6 8 15 11 20 8 5 -3 9 -1 9 5 0 5 9 12 19 16 25 8 77 89 86
135 18 80 3 138 -52 207 -67 84 -191 112 -285 65z m200 -28 c88 -44 138 -149
113 -239 -43 -156 -233 -216 -351 -109 -50 45 -73 95 -72 158 0 63 12 93 54
141 67 77 164 95 256 49z"/>
<path d="M1434 1616 c0 -22 -10 -47 -28 -71 -15 -20 -30 -54 -33 -76 -5 -33
-12 -43 -42 -59 -31 -16 -33 -19 -13 -20 33 0 72 43 72 79 0 17 11 42 26 61
27 31 47 120 27 120 -5 0 -9 -15 -9 -34z"/>
<path d="M1400 1613 c0 -14 -12 -41 -26 -60 -14 -18 -28 -49 -31 -67 -3 -23
-13 -37 -29 -45 -35 -16 -30 -31 6 -18 23 9 30 18 30 37 0 14 16 50 35 80 34
52 46 100 25 100 -5 0 -10 -12 -10 -27z"/>
<path d="M1530 1613 c-93 -52 -103 -83 -44 -129 90 -71 105 -90 111 -141 7
-66 13 -67 13 -3 0 50 -3 55 -47 99 -27 25 -61 56 -78 67 -39 28 -29 47 49 90
32 17 54 34 49 37 -4 3 -28 -6 -53 -20z"/>
<path d="M1543 1584 c-35 -20 -63 -41 -63 -48 0 -7 21 -28 48 -46 63 -44 93
-83 99 -131 3 -22 9 -37 14 -32 4 4 3 28 -3 51 -11 44 -45 86 -106 133 l-34
26 52 32 c29 18 59 30 68 26 12 -4 13 -3 2 10 -7 8 -13 15 -14 15 0 -1 -29
-17 -63 -36z"/>
<path d="M1421 1433 c-8 -3 -29 -21 -47 -39 -18 -19 -37 -34 -43 -34 -6 0 -11
-4 -11 -10 0 -21 27 -8 65 30 42 43 79 51 128 29 32 -15 50 -54 37 -79 -14
-26 -12 -60 3 -60 9 0 13 17 12 60 -1 75 -22 100 -86 106 -24 2 -50 1 -58 -3z"/>
<path d="M1391 1365 c-28 -24 -46 -47 -41 -50 6 -4 28 13 49 36 36 38 42 41
76 35 42 -8 52 -25 38 -69 -10 -34 -7 -57 8 -57 4 0 6 7 3 15 -3 8 0 31 6 51
12 36 11 39 -14 61 -40 34 -68 29 -125 -22z"/>
<path d="M1398 1318 c-40 -14 -34 -28 6 -16 42 13 66 5 66 -22 0 -11 5 -20 11
-20 14 0 1 42 -19 58 -18 14 -27 14 -64 0z"/>
<path d="M1415 1290 c-18 -7 -18 -9 9 -19 32 -13 41 -9 33 14 -7 17 -13 17
-42 5z"/>
<path d="M1526 1078 c-21 -30 -20 -51 3 -72 27 -25 72 -17 90 15 13 24 13 29
-2 53 -22 34 -69 36 -91 4z m70 -41 c-5 -33 -51 -31 -52 3 -2 30 14 42 38 29
11 -6 16 -18 14 -32z"/>
<path d="M1857 1982 c-20 -22 -22 -63 -5 -80 7 -7 26 -12 43 -12 17 0 36 5 43
12 20 20 14 65 -10 82 -29 21 -51 20 -71 -2z m67 -34 c-1 -10 -2 -23 -3 -29 0
-6 -13 -9 -28 -7 -20 2 -28 9 -29 23 -1 30 6 36 34 33 19 -2 27 -9 26 -20z"/>
<path d="M815 1490 c-35 -39 6 -99 59 -86 15 4 32 17 38 31 26 57 -55 102 -97
55z m73 -32 c3 -25 0 -28 -27 -28 -26 0 -31 4 -31 23 0 30 9 39 35 35 13 -2
21 -12 23 -30z"/>
<path d="M620 1920 c-40 -43 -40 -88 -1 -132 41 -47 102 -48 147 -4 47 48 34
142 -20 134 -16 -2 -22 -11 -24 -35 -4 -37 -38 -65 -48 -39 -7 18 3 36 20 36
8 0 13 12 12 33 -1 27 -5 32 -29 35 -21 3 -35 -5 -57 -28z m70 1 c0 -5 -11
-16 -25 -25 -15 -10 -25 -26 -25 -41 0 -25 33 -55 62 -55 26 0 48 38 41 71 -6
31 10 41 21 13 19 -50 -17 -104 -70 -104 -67 0 -99 77 -52 127 21 23 48 31 48
14z"/>
<path d="M2268 1923 c-70 -33 -82 -55 -55 -103 37 -68 79 -84 141 -55 57 27
70 79 36 145 -25 48 -42 50 -122 13z m100 -18 c31 -69 -1 -129 -66 -123 -29 2
-41 10 -59 37 -13 19 -23 39 -23 45 0 9 110 64 131 66 3 0 11 -11 17 -25z"/>
<path d="M2293 1877 c-48 -23 -52 -35 -23 -62 39 -35 99 6 86 58 -8 32 -9 32
-63 4z m31 -32 c-4 -8 -10 -15 -15 -15 -5 0 -9 7 -9 15 0 8 7 15 15 15 9 0 12
-6 9 -15z"/>
<path d="M561 1356 l-41 -42 43 -47 c23 -26 45 -47 49 -47 3 0 22 20 42 45
l37 45 -27 35 c-44 59 -55 60 -103 11z m97 -58 c-7 -4 -16 -8 -19 -8 -3 0 -12
-12 -19 -27 -12 -28 -12 -28 -21 -6 -4 12 -20 29 -34 39 l-26 17 23 11 c13 6
27 21 32 32 9 21 11 20 43 -14 25 -26 30 -38 21 -44z"/>
<path d="M2350 1363 c-22 -21 -40 -43 -40 -49 0 -6 18 -30 40 -55 l40 -44 45
49 45 50 -43 43 c-23 23 -43 43 -45 43 -1 0 -20 -17 -42 -37z m55 -5 c6 -13
20 -28 32 -34 l23 -11 -30 -22 c-17 -12 -30 -28 -30 -36 0 -24 -17 -17 -24 8
-3 13 -18 29 -33 36 l-27 12 25 12 c13 7 28 22 34 35 5 12 12 22 15 22 3 0 10
-10 15 -22z"/>
<path d="M2260 1135 c-7 -14 -17 -25 -21 -25 -5 0 -6 -6 -3 -13 3 -8 -2 -20
-11 -27 -8 -7 -15 -16 -15 -21 0 -17 -101 -149 -131 -169 -16 -12 -29 -28 -29
-36 0 -8 -5 -14 -12 -14 -6 0 -26 -12 -45 -26 -19 -14 -40 -27 -46 -28 -29 -6
-47 -19 -52 -37 -4 -11 -10 -17 -15 -14 -18 11 -58 -7 -69 -31 -14 -32 1 -72
33 -80 25 -6 76 19 76 38 0 6 11 8 25 5 19 -3 31 2 44 19 10 13 26 24 35 24 9
0 31 15 49 34 18 18 46 40 63 49 17 9 37 24 45 33 12 16 12 17 -1 10 -8 -4 -3
3 13 16 15 13 27 31 27 41 0 9 4 17 10 17 14 0 51 43 47 54 -2 6 7 19 20 29
25 20 30 46 11 66 -11 11 -10 13 4 8 9 -3 24 0 34 7 16 12 14 16 -25 55 -23
22 -43 41 -45 41 -1 0 -9 -11 -16 -25z m27 -9 c-4 -9 5 -19 24 -26 16 -7 26
-16 23 -21 -3 -5 -16 -1 -30 8 -22 14 -27 14 -35 2 -13 -21 -12 7 1 32 12 22
25 26 17 5z m-27 -76 c0 -5 6 -10 14 -10 8 0 18 -5 21 -10 8 -12 -12 -40 -28
-40 -7 0 -7 4 1 12 17 17 15 33 -3 18 -8 -7 -22 -10 -30 -6 -13 4 -14 10 -5
26 11 21 30 27 30 10z m-55 -70 c-6 -19 8 -29 18 -12 2 4 2 2 1 -5 -2 -7 1
-15 6 -18 6 -4 10 -1 10 4 0 6 4 11 10 11 5 0 7 -7 4 -15 -8 -20 -24 -19 -54
4 -20 16 -22 21 -11 35 18 22 24 20 16 -4z m-23 -57 c22 -19 24 -51 3 -59 -17
-7 -70 31 -56 40 5 3 14 -1 21 -9 14 -17 40 -20 40 -5 0 5 -9 15 -20 22 -19
12 -27 28 -13 28 3 0 15 -7 25 -17z m-61 -63 c10 -6 19 -17 19 -25 0 -8 6 -15
13 -15 6 0 -3 -8 -20 -16 -27 -13 -36 -14 -48 -4 -18 15 -19 42 -3 58 15 15
15 15 39 2z m-70 -72 c25 -31 24 -41 -6 -34 -27 7 -32 -3 -13 -22 7 -7 8 -12
2 -12 -6 0 -21 14 -34 32 l-23 31 34 -7 c26 -5 31 -4 21 6 -13 13 -16 28 -6
28 3 0 14 -10 25 -22z m-72 -57 c13 -24 -8 -55 -34 -50 -28 6 -42 34 -26 53
18 22 48 20 60 -3z m-104 -31 c3 -5 -3 -10 -14 -10 -14 0 -21 -6 -21 -20 0
-22 35 -29 43 -7 2 6 8 9 12 5 11 -11 -14 -38 -36 -38 -10 0 -23 9 -29 21 -9
16 -8 25 6 40 19 21 30 24 39 9z"/>
<path d="M2240 1029 c0 -5 5 -7 10 -4 6 3 10 8 10 11 0 2 -4 4 -10 4 -5 0 -10
-5 -10 -11z"/>
<path d="M2085 840 c-4 -7 -3 -16 3 -22 14 -14 45 -2 40 15 -6 16 -34 21 -43
7z"/>
<path d="M1933 724 c-8 -21 13 -42 28 -27 13 13 5 43 -11 43 -6 0 -13 -7 -17
-16z"/>
<path d="M652 1115 c-10 -11 -8 -20 7 -47 11 -18 30 -52 42 -75 13 -24 29 -43
36 -43 21 0 71 28 75 42 6 16 -30 78 -44 78 -6 0 -7 7 -4 16 4 9 1 23 -5 30
-15 18 -90 17 -107 -1z m88 -13 c0 -5 -11 -19 -25 -32 l-25 -23 0 21 c0 13 -6
22 -15 22 -8 0 -15 5 -15 10 0 6 18 10 40 10 22 0 40 -4 40 -8z m25 -83 c-16
-30 -16 -30 5 -19 12 6 24 9 27 7 3 -3 -9 -13 -27 -22 -37 -19 -46 -15 -30 14
12 23 1 28 -18 9 -8 -8 -12 -8 -12 -1 0 13 39 42 58 42 9 1 9 -7 -3 -30z"/>
<path d="M700 1089 c0 -5 5 -7 10 -4 6 3 10 8 10 11 0 2 -4 4 -10 4 -5 0 -10
-5 -10 -11z"/>
<path d="M822 947 c-12 -7 -29 -23 -38 -36 -15 -22 -15 -24 5 -44 11 -12 32
-34 46 -49 14 -16 32 -28 39 -28 7 0 18 -12 25 -26 7 -17 17 -24 26 -20 9 3
15 0 15 -8 0 -16 32 -46 49 -46 7 0 28 -12 47 -26 19 -15 37 -24 41 -20 4 3
16 -3 28 -14 13 -12 34 -22 48 -24 14 -1 32 -7 39 -13 7 -6 31 -14 53 -18 22
-4 45 -12 51 -16 6 -5 22 -9 35 -9 47 1 144 -8 159 -14 9 -4 25 2 37 13 18 17
23 18 33 6 16 -20 30 -19 45 2 11 15 15 15 29 4 13 -11 19 -11 30 -1 10 8 20
8 32 2 26 -14 91 29 77 51 -3 5 -14 -1 -24 -12 -11 -12 -24 -21 -29 -21 -11 0
-40 29 -40 40 0 16 32 41 48 38 19 -4 13 -23 -8 -23 -17 0 -21 -27 -5 -31 6
-2 21 5 35 15 24 19 24 20 6 40 -20 22 -46 27 -61 12 -12 -10 -125 -25 -175
-23 -19 1 -45 -3 -57 -9 -17 -9 -25 -8 -38 5 -21 21 -28 20 -50 -4 -18 -20
-18 -20 -30 2 -8 16 -19 22 -35 20 -13 -1 -31 5 -41 14 -10 9 -26 13 -37 10
-12 -4 -25 1 -37 14 -10 11 -29 20 -41 20 -14 0 -30 10 -40 25 -9 14 -20 23
-24 20 -5 -3 -22 6 -38 20 -16 14 -34 25 -39 25 -5 0 -45 34 -88 75 -43 41
-78 75 -79 75 -1 -1 -11 -6 -24 -13z m12 -42 c-38 -30 -52 -21 -16 10 15 13
31 21 36 18 4 -3 -5 -16 -20 -28z m51 -37 c-6 -31 -5 -32 9 -14 9 11 19 16 23
13 7 -8 -35 -57 -50 -57 -5 0 -6 15 -2 33 6 30 5 31 -9 13 -9 -11 -19 -16 -23
-13 -7 8 35 57 50 57 5 0 6 -15 2 -32z m80 -48 c16 -17 16 -20 2 -20 -9 0 -22
-9 -30 -21 -8 -11 -18 -16 -21 -11 -3 5 3 17 14 27 15 14 17 21 9 32 -18 21 6
15 26 -7z m75 -56 c0 -4 -6 -4 -14 -1 -22 9 -41 -19 -26 -38 14 -16 10 -18
-14 -9 -20 8 -20 18 0 49 13 20 20 23 35 14 10 -5 19 -12 19 -15z m-20 -24 c0
-5 -2 -10 -4 -10 -3 0 -8 5 -11 10 -3 6 -1 10 4 10 6 0 11 -4 11 -10z m74 -9
c12 -13 14 -21 6 -26 -6 -4 -15 -17 -20 -29 l-9 -21 -7 23 c-5 17 -9 20 -15
11 -17 -28 -19 0 -2 30 21 36 24 37 47 12z m85 -45 c9 -11 10 -20 1 -35 -13
-25 -45 -27 -59 -4 -21 38 31 72 58 39z m83 -56 c2 -22 0 -40 -4 -40 -5 0 -8
5 -8 11 0 7 -10 9 -25 5 -14 -4 -25 -4 -25 -1 0 10 43 65 51 65 4 0 9 -18 11
-40z m68 16 c0 -3 -4 -16 -10 -30 -7 -21 -6 -26 5 -26 8 0 15 -4 15 -10 0 -11
-8 -12 -31 -2 -12 6 -14 14 -7 40 5 17 13 32 18 32 6 0 10 -2 10 -4z m86 -33
c3 -16 7 -34 10 -40 2 -7 -1 -13 -5 -13 -5 0 -11 6 -14 13 -3 9 -9 9 -26 -1
-25 -15 -26 -13 -4 33 20 42 31 44 39 8z m186 9 c-7 -2 -12 -17 -12 -33 0 -16
-4 -29 -10 -29 -5 0 -10 14 -10 30 0 17 -5 30 -12 31 -7 1 -2 4 12 8 25 8 55
1 32 -7z m52 -14 c6 -28 2 -48 -8 -37 -10 11 -17 69 -8 69 5 0 12 -14 16 -32z
m-134 8 c10 -13 7 -15 -17 -13 -19 1 -28 -3 -28 -13 0 -11 9 -14 30 -12 23 3
27 1 19 -8 -17 -17 -58 -8 -62 13 -8 43 31 65 58 33z"/>
<path d="M1070 720 c0 -5 5 -10 11 -10 5 0 7 5 4 10 -3 6 -8 10 -11 10 -2 0
-4 -4 -4 -10z"/>
<path d="M1140 675 c-12 -15 -6 -35 12 -35 5 0 8 7 5 14 -4 11 -1 13 11 9 15
-6 15 -5 3 10 -16 21 -16 20 -31 2z"/>
<path d="M1235 630 c-3 -5 -1 -10 4 -10 6 0 11 5 11 10 0 6 -2 10 -4 10 -3 0
-8 -4 -11 -10z"/>
<path d="M1390 600 c0 -5 5 -10 11 -10 5 0 7 5 4 10 -3 6 -8 10 -11 10 -2 0
-4 -4 -4 -10z"/>
</g>
</svg>
